HIERARCHY
ROOT Hips
{
	OFFSET 0.00000 0.00000 0.00000
	CHANNELS 6 Xposition Yposition Zposition Zrotation Yrotation Xrotation 
	JOINT LHipJoint
	{
		OFFSET 0 0 0
		CHANNELS 3 Zrotation Yrotation Xrotation
		JOINT LeftUpLeg
		{
			OFFSET 1.62329 -1.80800 0.67318
			CHANNELS 3 Zrotation Yrotation Xrotation
			JOINT LeftLeg
			{
				OFFSET 2.57139 -7.06484 0.00000
				CHANNELS 3 Zrotation Yrotation Xrotation
				JOINT LeftFoot
				{
					OFFSET 2.52017 -6.92413 0.00000
					CHANNELS 3 Zrotation Yrotation Xrotation
					JOINT LeftToeBase
					{
						OFFSET 0.23295 -0.64001 2.10214
						CHANNELS 3 Zrotation Yrotation Xrotation
						End Site
						{
							OFFSET 0.00000 -0.00000 1.10139
						}
					}
				}
			}
		}
	}
	JOINT RHipJoint
	{
		OFFSET 0 0 0
		CHANNELS 3 Zrotation Yrotation Xrotation
		JOINT RightUpLeg
		{
			OFFSET -1.48061 -1.80800 0.67318
			CHANNELS 3 Zrotation Yrotation Xrotation
			JOINT RightLeg
			{
				OFFSET -2.63258 -7.23296 0.00000
				CHANNELS 3 Zrotation Yrotation Xrotation
				JOINT RightFoot
				{
					OFFSET -2.54779 -7.00000 0.00000
					CHANNELS 3 Zrotation Yrotation Xrotation
					JOINT RightToeBase
					{
						OFFSET -0.23067 -0.63376 2.12161
						CHANNELS 3 Zrotation Yrotation Xrotation
						End Site
						{
							OFFSET -0.00000 -0.00000 1.11000
						}
					}
				}
			}
		}
	}
	JOINT LowerBack
	{
		OFFSET 0 0 0
		CHANNELS 3 Zrotation Yrotation Xrotation
		JOINT Spine
		{
			OFFSET -0.02108 2.07573 -0.16981
			CHANNELS 3 Zrotation Yrotation Xrotation
			JOINT Spine1
			{
				OFFSET 0.05070 2.08439 -0.03141
				CHANNELS 3 Zrotation Yrotation Xrotation
				JOINT Neck
				{
					OFFSET 0 0 0
					CHANNELS 3 Zrotation Yrotation Xrotation
					JOINT Neck1
					{
						OFFSET -0.10731 1.60408 0.31370
						CHANNELS 3 Zrotation Yrotation Xrotation
						JOINT Head
						{
							OFFSET 0.08411 1.65679 -0.30822
							CHANNELS 3 Zrotation Yrotation Xrotation
							End Site
							{
								OFFSET 0.03911 1.69149 -0.14146
							}
						}
					}
				}
				JOINT LeftShoulder
				{
					OFFSET 0 0 0
					CHANNELS 3 Zrotation Yrotation Xrotation
					JOINT LeftArm
					{
						OFFSET 3.52315 0.73219 -0.54694
						CHANNELS 3 Zrotation Yrotation Xrotation
						JOINT LeftForeArm
						{
							OFFSET 5.32462 -0.00000 -0.00000
							CHANNELS 3 Zrotation Yrotation Xrotation
							JOINT LeftHand
							{
								OFFSET 3.48402 -0.00000 -0.00000
								CHANNELS 3 Zrotation Yrotation Xrotation
								JOINT LeftFingerBase
								{
									OFFSET 0 0 0
									CHANNELS 3 Zrotation Yrotation Xrotation
									JOINT LeftHandIndex1
									{
										OFFSET 0.57248 -0.00000 -0.00000
										CHANNELS 3 Zrotation Yrotation Xrotation
										End Site
										{
											OFFSET 0.46154 -0.00000 -0.00000
										}
									}
								}
								JOINT LThumb
								{
									OFFSET 0 0 0
									CHANNELS 3 Zrotation Yrotation Xrotation
									End Site
									{
										OFFSET 0.46859 -0.00000 0.46859
									}
								}
							}
						}
					}
				}
				JOINT RightShoulder
				{
					OFFSET 0 0 0
					CHANNELS 3 Zrotation Yrotation Xrotation
					JOINT RightArm
					{
						OFFSET -3.41766 0.93592 -0.10019
						CHANNELS 3 Zrotation Yrotation Xrotation
						JOINT RightForeArm
						{
							OFFSET -5.33589 -0.00000 -0.00000
							CHANNELS 3 Zrotation Yrotation Xrotation
							JOINT RightHand
							{
								OFFSET -3.64134 -0.00000 -0.00000
								CHANNELS 3 Zrotation Yrotation Xrotation
								JOINT RightFingerBase
								{
									OFFSET 0 0 0
									CHANNELS 3 Zrotation Yrotation Xrotation
									JOINT RightHandIndex1
									{
										OFFSET -0.73481 -0.00000 -0.00000
										CHANNELS 3 Zrotation Yrotation Xrotation
										End Site
										{
											OFFSET -0.59242 -0.00000 -0.00000
										}
									}
								}
								JOINT RThumb
								{
									OFFSET 0 0 0
									CHANNELS 3 Zrotation Yrotation Xrotation
									End Site
									{
										OFFSET -0.60147 -0.00000 0.60147
									}
								}
							}
						}
					}
				}
			}
		}
	}
}
MOTION
Frames: 12
Frame Time: 0.0689655
0.00 0.00 0.00 0 0 0 0 0 0 -21 0 0 0 0 0 0 0 0 0 0 0 0 0 0 21 0 0 0 0 0 0 0 0 0 0 0 0 0 0 0 0 0 0 0 0 0 0 -16 0 0 21 0 0 11 0 0 0 -8 0 0 0 0 0 0 0 0 0 0 0 0 0 0 0 0 0 0 0 0 8 0 0 0 0 0 0 0 0 0 0 0 0 0 0 0 0 0
0.00 0.00 0.00 3.8721 45.8950 13.3547 0.0000 0.0000 0.0000 -29.7170 -0.9858 -11.0422 5.1040 13.5000 41.2703 0.4862 2.7140 -14.4417 1.8986 -8.6517 -24.7117 0.0000 0.0000 0.0000 16.8135 7.7391 -38.5808 -4.9395 -13.3154 40.5608 -0.5167 -2.8250 -14.9025 -0.8001 -5.7091 15.9427 -0.4841 -1.6826 5.8554 5.4932 -2.1536 3.3342 6.0922 -1.1044 0.3967 -8.5252 2.8168 -10.0656 1.0844 7.5019 42.2183 3.3304 2.2778 16.6629 -0.0000 0.0000 0.0000 -92.7540 1.0867 22.6692 18.9978 -29.4159 -5.0298 -0.0000 -0.0000 6.3918 14.4832 25.4500 6.3339 -7.1250 0.0000 -0.0000 -16.3236 55.4026 -4.2508 -0.0000 0.0000 0.0000 77.3534 -2.5676 8.4348 -23.0732 34.1688 -7.1794 0.0000 0.0000 18.5424 -23.1096 3.2041 -1.3663 7.1250 -0.0000 -0.0000 2.6653 -26.4950 1.1975
0.00 0.00 0.00 1.8853 45.2196 11.3449 0.0000 0.0000 0.0000 -25.7852 -0.8420 -21.1574 9.4639 17.0971 57.6810 0.1752 -3.1097 -7.4432 1.4375 -7.5802 -21.4460 0.0000 0.0000 0.0000 18.4956 7.8859 -34.6347 -4.6026 -12.9218 39.0763 -0.6597 -2.3813 -16.3872 -0.6476 -5.1481 14.3314 1.0821 -1.7091 7.0768 6.1732 -2.0549 4.0558 5.9468 -1.0330 0.4270 -7.9937 2.7050 -9.7404 0.8767 7.1682 42.0622 3.0739 2.2003 16.5479 -0.0000 0.0000 0.0000 -90.8154 1.0083 24.9963 22.2748 -33.2862 -6.7361 -0.0000 -0.0000 7.5194 11.5940 25.3080 5.0122 -7.1250 0.0000 -0.0000 -19.1330 54.7091 -4.6917 -0.0000 0.0000 0.0000 76.6421 -2.7042 11.6407 -26.8687 38.0537 -9.4181 0.0000 0.0000 15.5407 -23.3544 3.0484 -1.3154 7.1250 -0.0000 -0.0000 2.4797 -26.6583 1.1045
0.00 0.00 0.00 0.8620 26.4332 14.0241 0.0000 0.0000 0.0000 -1.4508 -17.7007 -39.1171 2.8108 10.3823 30.2237 -0.1032 5.7800 -1.0096 1.7988 -8.4337 -24.0395 0.0000 0.0000 0.0000 11.7385 15.0652 -29.8681 -4.1130 -12.3093 36.8352 -0.5813 5.4629 -13.5832 -0.1203 -2.2358 6.1576 1.3408 0.3540 11.6656 4.9461 0.7368 6.9434 4.3228 0.3560 0.6767 -7.7898 3.7824 -9.7578 -0.7095 8.9034 41.1725 2.5333 2.6705 16.1169 0.0000 -0.0000 0.0000 -87.2064 -0.4562 20.2972 32.3228 -42.8030 -12.9596 -0.0000 -0.0000 3.9538 15.1348 22.3327 5.8680 -7.1250 0.0000 -0.0000 -14.1474 52.4798 -2.6475 0.0000 -0.0000 0.0000 71.6655 3.1719 20.6762 -38.1938 46.9626 -17.1071 0.0000 0.0000 15.2417 -23.0630 4.1276 -1.7554 7.1250 -0.0000 -0.0000 2.6968 -25.4943 1.2748
0.00 0.00 0.00 -3.5672 -1.6004 27.4231 0.0000 0.0000 0.0000 4.7871 -14.6989 -57.4474 5.2096 13.6161 41.7207 0.0974 -8.4728 -7.6928 0.9353 -6.1604 -17.2505 0.0000 0.0000 0.0000 6.6696 16.7897 -61.2814 -7.5036 -15.7417 50.7543 -0.2032 8.1316 -9.1894 -0.2331 3.1072 -8.5774 -1.8283 1.5409 27.3911 0.5560 1.4864 10.4369 1.2193 0.6521 -3.5627 -10.7851 3.9139 -11.2609 -2.4231 9.1873 33.9825 2.1769 2.3529 13.0140 -0.0000 -0.0000 0.0000 -80.9121 -10.3810 24.4280 21.1368 -31.9877 -6.1222 -0.0000 0.0000 -5.5380 20.6634 23.2197 8.4573 -7.1250 0.0000 -0.0000 -8.9733 54.3878 -2.0827 -0.0000 -0.0000 0.0000 71.2741 7.0456 27.1167 -46.8265 51.6325 -23.6623 0.0000 0.0000 7.6408 -29.3658 0.0515 -0.0290 7.1250 -0.0000 -0.0000 -2.2065 -29.9171 -0.8125
0.00 0.00 0.00 -0.7215 -3.1277 35.9484 0.0000 0.0000 0.0000 1.0525 -12.0313 -81.0415 9.2049 16.9378 56.7960 -0.4970 -16.4447 -5.5546 0.1279 -2.3052 -6.3498 0.0000 0.0000 0.0000 1.3881 14.3797 -81.0497 -11.2822 -18.0704 63.6946 -0.4925 5.5975 -12.5272 -0.0309 -1.1345 3.1188 -0.4933 0.1079 35.6567 -0.7101 -0.1329 11.8870 -0.4357 -0.0679 -4.8239 -13.3265 2.2987 -12.9374 -0.0246 6.7484 31.2723 3.1802 1.4434 12.1269 -0.0000 0.0000 0.0000 -79.4034 -15.9366 35.8124 20.9722 -31.7959 -6.0353 -0.0000 -0.0000 1.2877 22.1147 24.2234 9.4657 -7.1250 0.0000 -0.0000 -7.8705 55.7098 -2.0777 -0.0000 0.0000 0.0000 73.5112 9.8578 40.8093 -34.5451 44.4846 -14.4937 0.0000 0.0000 7.5089 -31.8259 3.1500 -1.9533 7.1250 -0.0000 -0.0000 -3.9635 -26.2703 -1.8039
0.00 0.00 0.00 -0.3173 -5.0598 37.3921 0.0000 0.0000 0.0000 3.4399 -12.3635 -94.5795 14.2211 19.1797 72.8785 -0.1903 -16.4024 -9.4828 0.4655 -4.3762 -12.1376 0.0000 0.0000 0.0000 -4.4835 13.5890 -94.1022 -15.6108 -19.5317 77.0698 -0.5702 6.9427 -13.5777 -0.0003 -0.1102 0.3027 0.5156 -0.1216 39.6722 0.2150 -0.0386 13.5539 -0.0231 -0.0478 -4.1693 -13.9593 1.2221 -8.3970 0.8264 4.1271 28.1240 3.1108 0.5680 10.1472 0.0000 0.0000 0.0000 -81.7589 -17.2357 47.5228 21.7781 -32.7253 -6.4655 -0.0000 -0.0000 4.5905 27.7486 22.6994 11.4761 -7.1250 0.0000 -0.0000 -1.3516 55.2726 -0.3409 0.0000 0.0000 0.0000 73.6897 14.1130 50.2306 -27.9595 39.0789 -10.0981 0.0000 0.0000 19.2976 -40.0272 6.2345 -5.2116 7.1250 -0.0000 -0.0000 -9.6604 -21.9005 -5.4358
0.00 0.00 0.00 -1.3403 -5.2112 32.6343 0.0000 0.0000 0.0000 8.5401 -12.7123 -103.6943 19.5437 19.9950 88.6658 0.2179 -14.5120 -12.5252 0.6731 -5.2463 -14.6124 0.0000 0.0000 0.0000 -5.0263 11.1468 -102.5553 -20.4050 -19.9961 91.1842 -0.5602 7.4767 -13.5425 -0.0905 1.9405 -5.3414 0.7111 0.3577 44.5644 2.1297 0.8063 13.1011 1.5868 0.2388 -6.0843 -10.4515 0.2693 -4.2164 0.1830 1.7331 27.0843 2.0078 -0.1667 9.1540 -0.0000 -0.0000 0.0000 -80.8896 -9.0601 60.3255 30.9639 -41.7054 -12.0458 -0.0000 0.0000 -2.3725 29.5248 19.1356 10.5173 -7.1250 0.0000 -0.0000 1.3031 51.7152 0.2155 -0.0000 -0.0000 0.0000 75.1292 7.6210 49.3463 -29.0097 40.0293 -10.7670 0.0000 0.0000 28.3493 -66.0835 -3.4849 7.8045 7.1250 -0.0000 -0.0000 -32.4592 -36.3276 -8.0079
0.00 0.00 0.00 -1.4059 -4.2661 2.0034 0.0000 0.0000 0.0000 8.3847 -13.6863 -93.4650 24.2305 19.5654 102.4557 -0.4414 -15.4493 -5.1544 0.4367 -4.2407 -11.7549 0.0000 0.0000 0.0000 -5.3722 14.9631 -91.8166 -25.4623 -19.2691 106.1600 -0.3221 -0.0854 -10.7527 -0.0322 1.1581 -3.1840 -1.4035 0.8998 33.4624 2.1197 0.7370 13.8302 2.7244 0.1767 -2.0010 -11.4501 -0.4933 -10.7057 2.0538 1.3090 29.0552 2.8825 -0.3900 11.1286 -0.0000 0.0000 0.0000 -73.3896 1.6308 57.1719 43.7561 -50.1443 -21.2795 -0.0000 0.0000 -4.7578 4.4001 15.6647 1.1902 -7.1250 0.0000 -0.0000 -21.3574 44.5648 0.2408 -0.0000 0.0000 0.0000 72.8082 -4.9714 51.3004 -30.7080 41.4926 -11.8759 0.0000 0.0000 33.6201 -68.3056 1.9739 -4.9483 7.1250 -0.0000 -0.0000 -29.8558 -24.2425 -17.3638
0.00 0.00 0.00 0.9406 -4.4835 -13.7578 0.0000 0.0000 0.0000 0.2140 -9.2837 -80.2560 24.1315 19.5857 102.1604 -0.7431 -15.8750 0.4970 0.2391 -3.1467 -8.6873 0.0000 0.0000 0.0000 -3.8385 17.3797 -78.6594 -25.8912 -19.1467 107.4635 -0.2309 -1.9585 -10.0141 -0.0403 1.2956 -3.5626 -1.4095 0.0425 29.4020 2.1309 -0.2606 12.3562 3.2343 -0.2756 -2.2531 -12.0717 -0.6546 -14.1459 0.7897 2.1702 30.3682 2.6813 -0.3174 12.3329 0.0000 -0.0000 0.0000 -73.0224 4.3851 23.4353 43.7485 -50.1404 -21.2737 -0.0000 0.0000 -4.2659 14.3411 23.4695 5.8138 -7.1250 0.0000 -0.0000 -15.4514 53.4528 -3.2733 0.0000 -0.0000 0.0000 64.6076 -6.2799 28.8077 -40.4388 48.3278 -18.7664 0.0000 0.0000 11.0777 -36.7261 8.7776 -6.4953 7.1250 -0.0000 -0.0000 -6.9680 -19.1188 -4.3335
0.00 0.00 0.00 0.9176 -4.3275 -18.0982 0.0000 0.0000 0.0000 -4.7144 -6.8913 -78.0647 24.2858 19.5538 102.6208 -0.4982 -13.2011 -0.0002 0.3350 -3.7195 -10.2889 0.0000 0.0000 0.0000 -2.1709 16.6967 -74.0465 -25.5885 -19.2341 106.5427 -0.1888 -1.7038 -9.0157 -0.0163 0.8252 -2.2680 -1.2280 0.2916 28.3811 2.5595 0.1423 11.8643 3.4714 -0.0702 -2.3701 -12.1360 -1.3601 -12.8316 1.4473 0.7447 29.6516 2.7234 -0.8355 11.8667 0.0000 0.0000 0.0000 -78.0638 -0.2777 13.7525 71.5551 -58.6746 -44.0973 -0.0000 -0.0000 4.3247 30.1903 20.5346 11.5342 -7.1250 0.0000 -0.0000 1.7516 53.4009 0.3620 0.0000 0.0000 0.0000 68.4088 -0.1722 20.7332 -73.6522 58.9657 -45.8915 0.0000 0.0000 14.7835 -37.3048 5.0991 -3.8741 7.1250 -0.0000 -0.0000 -7.8549 -23.5896 -4.0923
0.00 0.00 0.00 1.4892 -4.0764 -20.5055 0.0000 0.0000 0.0000 -9.7786 -5.3350 -75.0071 24.4860 19.5105 103.2196 -0.5466 -14.2342 -1.0350 0.0230 -0.9788 -2.6905 0.0000 0.0000 0.0000 5.9613 8.8079 -74.5449 -26.0829 -19.0887 108.0487 -0.1073 4.3907 -6.1581 -0.0432 -1.3418 3.6898 -0.7425 0.5790 26.3340 1.4176 0.6050 10.5391 1.7973 0.2322 -2.9193 -11.4775 -1.9619 -19.0944 1.7041 0.4779 26.9451 2.6493 -0.7510 12.0754 -0.0000 -0.0000 0.0000 -85.2353 -22.6836 44.1568 62.5722 -56.9573 -36.4894 -0.0000 -0.0000 26.8669 26.3442 15.5393 7.5568 -7.1250 0.0000 -0.0000 -1.2602 47.2143 -0.0689 -0.0000 -0.0000 0.0000 77.5928 21.9545 47.9792 -63.1742 57.0981 -36.9945 0.0000 0.0000 45.8622 -32.3661 8.6217 -5.4275 7.1250 -0.0000 -0.0000 -3.9112 -19.8149 -2.3593
